Choose 2010 Dvdrip Xvid-OlFA
 
http://www.imdb.com/title/tt1325723/

Crime | Drama | Horror

Users: 5.3/10 (18 votes)

A journalism student tracks a killer with the help of her detective
father and a therapist.

Director: Marcus Graves

Stars: Katheryn Winnick, Nicholas Tucci, Kevin Pollak and Bruce Dern

Aspect: 2.35:1

Audio: English, no subtitles.

Format : AVI
Format/Info : Audio Video Interleave
File size : 727 MiB
Duration : 1h 22mn
Overall bit rate : 1 227 Kbps
Writing application : VirtualDubMod 1.5.4.1 (build 2178/release)
Writing library : VirtualDubMod build 2178/release

Video
ID : 0
Format : MPEG-4 Visual
Format profile : Advanced Simple@L5
Format settings, BVOP : Yes
Format settings, QPel : No
Format settings, GMC : No warppoints
Format settings, Matrix : Default (H.263)
Muxing mode : Packed bitstream
Codec ID : XVID
Codec ID/Hint : XviD
Duration : 1h 22mn
Bit rate : 1 090 Kbps
Width : 640 pixels
Height : 268 pixels
Display aspect ratio : 2.35:1
Frame rate : 29.970 fps
Color space : YUV
Chroma subsampling : 4:2:0
Bit depth : 8 bits
Scan type : Progressive
Bits/(Pixel*Frame) : 0.212
Stream size : 646 MiB (89%)
Writing library : XviD 1.2.0.dev47 (UTC 2006-11-01)

Audio
ID : 1
Format : MPEG Audio
Format version : Version 1
Format profile : Layer 2
Codec ID : 50
Duration : 1h 22mn
Bit rate mode : Constant
Bit rate : 128 Kbps
Channel(s) : 2 channels
Sampling rate : 44.1 KHz
Stream size : 75.9 MiB (10%)
Alignment : Split accross interleaves
Interleave, duration : 72 ms (2.16 video frames)
Interleave, preload duration : 504 ms


Source: NTSC, had trouble with audio sync so kept framerate at source framerate 